<?xml version="1.0" standalone="no"?><!DOCTYPE svg PUBLIC "-//W3C//DTD SVG 1.1//EN" "http://www.w3.org/Graphics/SVG/1.1/DTD/svg11.dtd"><svg t="1491572332202" class="icon" style="" viewBox="0 0 1024 1024" version="1.1" xmlns="http://www.w3.org/2000/svg" p-id="3960" xmlns:xlink="http://www.w3.org/1999/xlink" width="40" height="40"><defs><style type="text/css"></style></defs><path d="M647.269136 265.120282 181.683245 265.120282c-66.821869 0-121.362963 54.541093-121.362963 121.362963l0 392.262434c0 66.821869 54.541093 121.362963 121.362963 121.362963l465.224691 0c66.821869 0 121.362963-54.541093 121.362963-121.362963L768.270899 386.483245C768.632099 319.300176 714.091005 265.120282 647.269136 265.120282zM181.683245 330.136155l465.224691 0c31.063139 0 56.34709 25.283951 56.34709 56.34709l0 126.058554-577.918871 0L125.336155 386.483245C125.697354 355.420106 150.981305 330.136155 181.683245 330.136155zM647.269136 834.73157 181.683245 834.73157c-31.063139 0-56.34709-25.283951-56.34709-56.34709l0-197.576014 577.918871 0 0 197.576014C703.616226 809.808818 677.971076 834.73157 647.269136 834.73157z" p-id="3961"></path><path d="M383.593651 673.997884 237.669136 673.997884c-18.782363 0-34.313933 15.17037-34.313933 34.313933 0 18.782363 15.17037 34.313933 34.313933 34.313933l146.285714 0c18.782363 0 34.313933-15.17037 34.313933-34.313933C417.907584 689.168254 402.737213 673.997884 383.593651 673.997884z" p-id="3962"></path><path d="M593.450441 673.997884l-55.985891 0c-18.782363 0-34.313933 15.17037-34.313933 34.313933 0 18.782363 15.17037 34.313933 34.313933 34.313933l55.985891 0c18.782363 0 34.313933-15.17037 34.313933-34.313933C627.403175 689.168254 612.232804 673.997884 593.450441 673.997884z" p-id="3963"></path><path d="M844.483951 54.179894 379.259259 54.179894c-66.821869 0-121.362963 54.541093-121.362963 121.362963l0 25.283951 65.015873 0 0-25.283951c0-31.063139 25.283951-56.34709 56.34709-56.34709l465.224691 0c31.063139 0 56.34709 25.283951 56.34709 56.34709l0 392.262434c0 31.063139-25.283951 56.34709-56.34709 56.34709l-19.865961 0 0 65.015873 19.865961 0c66.821869 0 121.362963-54.541093 121.362963-121.362963L965.846914 175.542857C966.208113 108.720988 911.667019 54.179894 844.483951 54.179894z" p-id="3964"></path></svg>